<svg xmlns="http://www.w3.org/2000/svg" width="1180" height="360" viewBox="0 0 1180 360">
  <defs>
    <linearGradient id="sky" x1="0" y1="0" x2="1" y2="1">
      <stop offset="0" stop-color="#e9f2ff" />
      <stop offset="1" stop-color="#cfe3ff" />
    </linearGradient>
    <linearGradient id="city" x1="0" y1="0" x2="0" y2="1">
      <stop offset="0" stop-color="#c7d7f2" />
      <stop offset="1" stop-color="#a9c4ea" />
    </linearGradient>
  </defs>
  <rect width="1180" height="360" rx="10" fill="url(#sky)" />
  <path d="M0 290 C 180 250, 260 320, 420 284 C 520 262, 600 230, 700 260 C 840 302, 980 240, 1180 270 L 1180 360 L 0 360 Z" fill="#dbe9ff" opacity="0.9" />
  <g opacity="0.75">
    <rect x="90" y="160" width="70" height="130" rx="8" fill="url(#city)" />
    <rect x="178" y="190" width="46" height="100" rx="8" fill="url(#city)" />
    <rect x="242" y="140" width="86" height="150" rx="8" fill="url(#city)" />
    <rect x="350" y="180" width="56" height="110" rx="8" fill="url(#city)" />
    <rect x="420" y="120" width="110" height="170" rx="8" fill="url(#city)" />
    <rect x="548" y="170" width="62" height="120" rx="8" fill="url(#city)" />
  </g>
  <path d="M300 96 L 340 96 L 330 76 Z" fill="#b8cff2" opacity="0.7" />
  <path d="M210 88 L 250 88 L 240 68 Z" fill="#b8cff2" opacity="0.7" />
  <text x="590" y="190" text-anchor="middle" font-family="ui-sans-serif, system-ui, -apple-system" font-size="18" fill="#6b7280">占位 / 登录页背景</text>
</svg>

